{
  "version": "0.6.2c",
  "modules": [
    {
      "plugin": "Core",
      "version": "0.6.2c",
      "model": "AudioInterface",
      "params": [],
      "data": {
        "audio": {
          "driver": 5,
          "deviceName": "Apple Inc.: External Headphones",
          "offset": 0,
          "maxChannels": 8,
          "sampleRate": 44100,
          "blockSize": 256
        }
      },
      "pos": [
        39,
        0
      ]
    },
    {
      "plugin": "Valley",
      "version": "0.6.6",
      "model": "Plateau",
      "params": [
        {
          "paramId": 0,
          "value": 1.0
        },
        {
          "paramId": 1,
          "value": 0.5
        },
        {
          "paramId": 2,
          "value": 0.0
        },
        {
          "paramId": 3,
          "value": 10.0
        },
        {
          "paramId": 4,
          "value": 10.0
        },
        {
          "paramId": 5,
          "value": 0.5
        },
        {
          "paramId": 6,
          "value": 10.0
        },
        {
          "paramId": 7,
          "value": 0.549950004
        },
        {
          "paramId": 9,
          "value": 10.0
        },
        {
          "paramId": 8,
          "value": 10.0
        },
        {
          "paramId": 10,
          "value": 0.0
        },
        {
          "paramId": 12,
          "value": 0.5
        },
        {
          "paramId": 11,
          "value": 0.5
        },
        {
          "paramId": 17,
          "value": 0.0
        },
        {
          "paramId": 18,
          "value": 0.0
        },
        {
          "paramId": 19,
          "value": 0.0
        },
        {
          "paramId": 20,
          "value": 0.0
        },
        {
          "paramId": 21,
          "value": 0.0
        },
        {
          "paramId": 22,
          "value": 0.0
        },
        {
          "paramId": 23,
          "value": 0.0
        },
        {
          "paramId": 25,
          "value": 0.0
        },
        {
          "paramId": 24,
          "value": 0.0
        },
        {
          "paramId": 26,
          "value": 0.0
        },
        {
          "paramId": 28,
          "value": 0.0
        },
        {
          "paramId": 27,
          "value": 0.0
        },
        {
          "paramId": 13,
          "value": 0.0
        },
        {
          "paramId": 15,
          "value": 0.0
        },
        {
          "paramId": 14,
          "value": 0.0
        },
        {
          "paramId": 29,
          "value": 0.0
        },
        {
          "paramId": 30,
          "value": 0.0
        }
      ],
      "data": {
        "frozen": false,
        "freezeToggle": false,
        "panelStyle": 0,
        "tuned": 0,
        "diffuseInput": 1,
        "preDelayCVSens": 0
      },
      "pos": [
        27,
        0
      ]
    },
    {
      "plugin": "Fundamental",
      "version": "0.6.2",
      "model": "8vert",
      "params": [
        {
          "paramId": 0,
          "value": 0.28300035
        },
        {
          "paramId": 1,
          "value": 0.458999872
        },
        {
          "paramId": 2,
          "value": 0.0
        },
        {
          "paramId": 3,
          "value": 0.0
        },
        {
          "paramId": 4,
          "value": 0.0
        },
        {
          "paramId": 5,
          "value": 0.0
        },
        {
          "paramId": 6,
          "value": 0.0
        },
        {
          "paramId": 7,
          "value": 0.0
        }
      ],
      "pos": [
        40,
        1
      ]
    },
    {
      "plugin": "FrozenWasteland",
      "version": "0.6.7",
      "model": "SeriouslySlowLFO",
      "params": [
        {
          "paramId": 0,
          "value": 0.0
        },
        {
          "paramId": 1,
          "value": 1.0
        },
        {
          "paramId": 2,
          "value": 0.0
        }
      ],
      "data": {
        "timeBase": 0
      },
      "pos": [
        48,
        1
      ]
    },
    {
      "plugin": "squinkylabs-plug1",
      "version": "0.6.13",
      "model": "squinkylabs-lfn",
      "params": [
        {
          "paramId": 5,
          "value": -3.70500422
        },
        {
          "paramId": 0,
          "value": -4.67000008
        },
        {
          "paramId": 1,
          "value": 0.0
        },
        {
          "paramId": 2,
          "value": 0.0
        },
        {
          "paramId": 3,
          "value": 0.0
        },
        {
          "paramId": 4,
          "value": 0.0
        }
      ],
      "pos": [
        78,
        1
      ]
    },
    {
      "plugin": "squinkylabs-plug1",
      "version": "0.6.13",
      "model": "squinkylabs-lfn",
      "params": [
        {
          "paramId": 5,
          "value": 0.0
        },
        {
          "paramId": 0,
          "value": 0.0
        },
        {
          "paramId": 1,
          "value": 0.0
        },
        {
          "paramId": 2,
          "value": 0.0
        },
        {
          "paramId": 3,
          "value": 0.0
        },
        {
          "paramId": 4,
          "value": 0.0
        }
      ],
      "pos": [
        72,
        1
      ]
    },
    {
      "plugin": "VultModulesFree",
      "version": "0.6.20",
      "model": "Lateralus",
      "params": [
        {
          "paramId": 0,
          "value": 0.483000606
        },
        {
          "paramId": 1,
          "value": 0.570001304
        },
        {
          "paramId": 2,
          "value": 0.0
        },
        {
          "paramId": 3,
          "value": 0.0
        },
        {
          "paramId": 4,
          "value": 0.666001499
        },
        {
          "paramId": 5,
          "value": 0.0
        }
      ],
      "pos": [
        0,
        1
      ]
    },
    {
      "plugin": "VultModulesFree",
      "version": "0.6.20",
      "model": "Unstabile",
      "params": [
        {
          "paramId": 0,
          "value": 0.431999236
        },
        {
          "paramId": 1,
          "value": 0.506502628
        },
        {
          "paramId": 2,
          "value": 0.0
        },
        {
          "paramId": 3,
          "value": 0.0
        },
        {
          "paramId": 4,
          "value": 0.501000464
        },
        {
          "paramId": 5,
          "value": 0.0
        },
        {
          "paramId": 6,
          "value": 0.131999984
        },
        {
          "paramId": 7,
          "value": 0.0
        }
      ],
      "pos": [
        16,
        1
      ]
    },
    {
      "plugin": "VultModulesFree",
      "version": "0.6.20",
      "model": "Basal",
      "params": [
        {
          "paramId": 0,
          "value": -0.315000743
        },
        {
          "paramId": 1,
          "value": 0.439999819
        },
        {
          "paramId": 2,
          "value": 0.684000194
        },
        {
          "paramId": 4,
          "value": 0.751500189
        },
        {
          "paramId": 3,
          "value": 0.0
        },
        {
          "paramId": 5,
          "value": 0.0
        }
      ],
      "pos": [
        10,
        1
      ]
    },
    {
      "plugin": "MSM",
      "version": "0.6.4",
      "model": "Treasure VCO",
      "params": [
        {
          "paramId": 0,
          "value": 1.0
        },
        {
          "paramId": 1,
          "value": 0.0
        },
        {
          "paramId": 2,
          "value": 9.0
        },
        {
          "paramId": 3,
          "value": 0.183000088
        },
        {
          "paramId": 7,
          "value": 1.0
        },
        {
          "paramId": 8,
          "value": 1.0
        },
        {
          "paramId": 9,
          "value": 1.0
        },
        {
          "paramId": 10,
          "value": 0.0
        },
        {
          "paramId": 11,
          "value": 0.0
        },
        {
          "paramId": 12,
          "value": 0.0
        },
        {
          "paramId": 5,
          "value": 1.0
        },
        {
          "paramId": 6,
          "value": 1277.96851
        },
        {
          "paramId": 4,
          "value": 0.0
        }
      ],
      "data": {
        "Theme": 0
      },
      "pos": [
        26,
        1
      ]
    },
    {
      "plugin": "AudibleInstruments",
      "version": "0.6.3",
      "model": "Rings",
      "params": [
        {
          "paramId": 0,
          "value": 0.0
        },
        {
          "paramId": 1,
          "value": 0.0
        },
        {
          "paramId": 2,
          "value": 41.340023
        },
        {
          "paramId": 3,
          "value": 0.765999317
        },
        {
          "paramId": 4,
          "value": 0.341000378
        },
        {
          "paramId": 5,
          "value": 0.814999223
        },
        {
          "paramId": 6,
          "value": 0.324500114
        },
        {
          "paramId": 7,
          "value": 0.0
        },
        {
          "paramId": 8,
          "value": -0.255000085
        },
        {
          "paramId": 9,
          "value": 0.0
        },
        {
          "paramId": 10,
          "value": 0.0
        },
        {
          "paramId": 11,
          "value": 0.0
        }
      ],
      "data": {
        "polyphony": 0,
        "model": 1,
        "easterEgg": false
      },
      "pos": [
        58,
        1
      ]
    },
    {
      "plugin": "ImpromptuModular",
      "version": "0.6.12",
      "model": "Tact1",
      "params": [
        {
          "paramId": 0,
          "value": 10.3699999
        },
        {
          "paramId": 2,
          "value": 2.01200008
        },
        {
          "paramId": 1,
          "value": 1.0
        },
        {
          "paramId": 3,
          "value": 0.0
        }
      ],
      "data": {
        "cv": 10.0,
        "rateMultiplier": 1.0,
        "panelTheme": 1
      },
      "pos": [
        2,
        2
      ]
    },
    {
      "plugin": "ImpromptuModular",
      "version": "0.6.12",
      "model": "Tact1",
      "params": [
        {
          "paramId": 0,
          "value": -0.397857666
        },
        {
          "paramId": 2,
          "value": 2.02599955
        },
        {
          "paramId": 1,
          "value": 1.0
        },
        {
          "paramId": 3,
          "value": 0.0
        }
      ],
      "data": {
        "cv": 4.99210644,
        "rateMultiplier": 1.0,
        "panelTheme": 1
      },
      "pos": [
        18,
        2
      ]
    },
    {
      "plugin": "ImpromptuModular",
      "version": "0.6.12",
      "model": "Tact1",
      "params": [
        {
          "paramId": 0,
          "value": -0.129999995
        },
        {
          "paramId": 2,
          "value": 2.09800005
        },
        {
          "paramId": 1,
          "value": 1.0
        },
        {
          "paramId": 3,
          "value": 0.0
        }
      ],
      "data": {
        "cv": 5.64083576,
        "rateMultiplier": 1.0,
        "panelTheme": 1
      },
      "pos": [
        26,
        2
      ]
    },
    {
      "plugin": "NYSTHI",
      "version": "0.6.35",
      "model": "HotTuna",
      "params": [
        {
          "paramId": 0,
          "value": 0.0
        },
        {
          "paramId": 1,
          "value": -0.23999998
        },
        {
          "paramId": 2,
          "value": 0.0
        },
        {
          "paramId": 3,
          "value": 0.0
        }
      ],
      "data": {
        "m_use_DOREMI": false
      },
      "pos": [
        76,
        2
      ]
    },
    {
      "plugin": "AudibleInstruments",
      "version": "0.6.3",
      "model": "Rings",
      "params": [
        {
          "paramId": 0,
          "value": 0.0
        },
        {
          "paramId": 1,
          "value": 0.0
        },
        {
          "paramId": 2,
          "value": 47.9399796
        },
        {
          "paramId": 3,
          "value": 0.45900014
        },
        {
          "paramId": 4,
          "value": 0.203499764
        },
        {
          "paramId": 5,
          "value": 0.392500043
        },
        {
          "paramId": 6,
          "value": 0.966500282
        },
        {
          "paramId": 7,
          "value": 0.0
        },
        {
          "paramId": 8,
          "value": 0.143999994
        },
        {
          "paramId": 9,
          "value": 0.0
        },
        {
          "paramId": 10,
          "value": 0.0
        },
        {
          "paramId": 11,
          "value": 0.0
        }
      ],
      "data": {
        "polyphony": 0,
        "model": 0,
        "easterEgg": false
      },
      "pos": [
        94,
        1
      ]
    },
    {
      "plugin": "FrozenWasteland",
      "version": "0.6.7",
      "model": "SeriouslySlowLFO",
      "params": [
        {
          "paramId": 0,
          "value": 0.0
        },
        {
          "paramId": 1,
          "value": 1.4454999
        },
        {
          "paramId": 2,
          "value": 0.0
        }
      ],
      "data": {
        "timeBase": 1
      },
      "pos": [
        84,
        1
      ]
    },
    {
      "plugin": "ImpromptuModular",
      "version": "0.6.12",
      "model": "Tact1",
      "params": [
        {
          "paramId": 0,
          "value": -0.451426983
        },
        {
          "paramId": 2,
          "value": 2.62000203
        },
        {
          "paramId": 1,
          "value": 1.0
        },
        {
          "paramId": 3,
          "value": 0.0
        }
      ],
      "data": {
        "cv": 5.69775391,
        "rateMultiplier": 1.0,
        "panelTheme": 1
      },
      "pos": [
        10,
        2
      ]
    },
    {
      "plugin": "Southpole",
      "version": "0.6.0",
      "model": "CornrowsX",
      "params": [
        {
          "paramId": 6,
          "value": 0.450000823
        },
        {
          "paramId": 9,
          "value": 0.0
        },
        {
          "paramId": 10,
          "value": 0.0
        },
        {
          "paramId": 11,
          "value": 0.5
        },
        {
          "paramId": 0,
          "value": -0.0360000581
        },
        {
          "paramId": 1,
          "value": -0.647999823
        },
        {
          "paramId": 8,
          "value": 0.701001406
        },
        {
          "paramId": 18,
          "value": 0.0
        },
        {
          "paramId": 17,
          "value": 0.0
        },
        {
          "paramId": 7,
          "value": 0.0
        },
        {
          "paramId": 2,
          "value": 0.0
        },
        {
          "paramId": 13,
          "value": 0.0
        },
        {
          "paramId": 4,
          "value": 0.0149998926
        },
        {
          "paramId": 3,
          "value": 0.578000188
        },
        {
          "paramId": 12,
          "value": 0.0
        },
        {
          "paramId": 5,
          "value": 0.5
        },
        {
          "paramId": 14,
          "value": 0.0
        },
        {
          "paramId": 16,
          "value": 1.0
        },
        {
          "paramId": 15,
          "value": 1.0
        }
      ],
      "data": {
        "settings": [
          21,
          6,
          6,
          0,
          0,
          0,
          0,
          0,
          2,
          0,
          0,
          0,
          0,
          0,
          0,
          7,
          0,
          0,
          0,
          0
        ],
        "lowCpu": false
      },
      "pos": [
        49,
        0
      ]
    },
    {
      "plugin": "FrozenWasteland",
      "version": "0.6.7",
      "model": "SeriouslySlowLFO",
      "params": [
        {
          "paramId": 0,
          "value": 0.0
        },
        {
          "paramId": 1,
          "value": 3.67300415
        },
        {
          "paramId": 2,
          "value": 0.0
        }
      ],
      "data": {
        "timeBase": 0
      },
      "pos": [
        57,
        0
      ]
    },
    {
      "plugin": "ImpromptuModular",
      "version": "0.6.12",
      "model": "Tact1",
      "params": [
        {
          "paramId": 0,
          "value": -0.344284654
        },
        {
          "paramId": 2,
          "value": 2.05000234
        },
        {
          "paramId": 1,
          "value": 1.0
        },
        {
          "paramId": 3,
          "value": 0.0
        }
      ],
      "data": {
        "cv": 5.91862011,
        "rateMultiplier": 1.0,
        "panelTheme": 1
      },
      "pos": [
        34,
        2
      ]
    },
    {
      "plugin": "Southpole",
      "version": "0.6.0",
      "model": "CornrowsX",
      "params": [
        {
          "paramId": 6,
          "value": 0.627001882
        },
        {
          "paramId": 9,
          "value": 0.0
        },
        {
          "paramId": 10,
          "value": 0.0
        },
        {
          "paramId": 11,
          "value": 0.5
        },
        {
          "paramId": 0,
          "value": -0.0360000581
        },
        {
          "paramId": 1,
          "value": 1.51200259
        },
        {
          "paramId": 8,
          "value": 0.341000289
        },
        {
          "paramId": 18,
          "value": 0.0
        },
        {
          "paramId": 17,
          "value": 0.0
        },
        {
          "paramId": 7,
          "value": 0.0
        },
        {
          "paramId": 2,
          "value": 0.0
        },
        {
          "paramId": 13,
          "value": 0.0
        },
        {
          "paramId": 4,
          "value": 0.0149998926
        },
        {
          "paramId": 3,
          "value": 0.578000188
        },
        {
          "paramId": 12,
          "value": 0.0
        },
        {
          "paramId": 5,
          "value": 0.207499459
        },
        {
          "paramId": 14,
          "value": 0.0
        },
        {
          "paramId": 16,
          "value": 1.0
        },
        {
          "paramId": 15,
          "value": 1.0
        }
      ],
      "data": {
        "settings": [
          29,
          6,
          6,
          0,
          0,
          0,
          0,
          0,
          1,
          0,
          0,
          0,
          0,
          0,
          0,
          7,
          0,
          0,
          0,
          0
        ],
        "lowCpu": false
      },
      "pos": [
        83,
        0
      ]
    },
    {
      "plugin": "FrozenWasteland",
      "version": "0.6.7",
      "model": "SeriouslySlowLFO",
      "params": [
        {
          "paramId": 0,
          "value": 0.0
        },
        {
          "paramId": 1,
          "value": 1.89099979
        },
        {
          "paramId": 2,
          "value": 0.0
        }
      ],
      "data": {
        "timeBase": 0
      },
      "pos": [
        73,
        0
      ]
    },
    {
      "plugin": "LindenbergResearch",
      "version": "0.6.4",
      "model": "DIODE VCF",
      "params": [
        {
          "paramId": 0,
          "value": 0.609999955
        },
        {
          "paramId": 1,
          "value": 0.177000046
        },
        {
          "paramId": 2,
          "value": 0.451500297
        },
        {
          "paramId": 3,
          "value": 0.0
        },
        {
          "paramId": 4,
          "value": 0.0
        },
        {
          "paramId": 5,
          "value": 0.0
        }
      ],
      "gestaltID": 1,
      "gradient": true,
      "patina": false,
      "patina_a_x": -561.768188,
      "patina_a_y": -464.957581,
      "patina_b_x": -37.6487579,
      "patina_b_y": -219.851562,
      "pos": [
        91,
        0
      ]
    },
    {
      "plugin": "ImpromptuModular",
      "version": "0.6.12",
      "model": "Tact1",
      "params": [
        {
          "paramId": 0,
          "value": -0.451426983
        },
        {
          "paramId": 2,
          "value": 2.02600074
        },
        {
          "paramId": 1,
          "value": 1.0
        },
        {
          "paramId": 3,
          "value": 0.0
        }
      ],
      "data": {
        "cv": 6.72440624,
        "rateMultiplier": 1.0,
        "panelTheme": 1
      },
      "pos": [
        50,
        2
      ]
    },
    {
      "plugin": "SubmarineFree",
      "version": "0.6.8",
      "model": "TD-202",
      "params": [],
      "text": "A1",
      "fg": "#28b0f3",
      "bg": "#00000000",
      "pos": [
        0,
        2
      ]
    },
    {
      "plugin": "SubmarineFree",
      "version": "0.6.8",
      "model": "TD-202",
      "params": [],
      "text": "G#3",
      "fg": "#28b0f3",
      "bg": "#00000000",
      "pos": [
        8,
        2
      ]
    },
    {
      "plugin": "SubmarineFree",
      "version": "0.6.8",
      "model": "TD-202",
      "params": [],
      "text": "F#3",
      "fg": "#28b0f3",
      "bg": "#00000000",
      "pos": [
        16,
        2
      ]
    },
    {
      "plugin": "SubmarineFree",
      "version": "0.6.8",
      "model": "TD-202",
      "params": [],
      "text": "C#4",
      "fg": "#28b0f3",
      "bg": "#00000000",
      "pos": [
        24,
        2
      ]
    },
    {
      "plugin": "SubmarineFree",
      "version": "0.6.8",
      "model": "TD-202",
      "params": [],
      "text": "E3",
      "fg": "#28b0f3",
      "bg": "#00000000",
      "pos": [
        32,
        2
      ]
    },
    {
      "plugin": "SubmarineFree",
      "version": "0.6.8",
      "model": "TD-202",
      "params": [],
      "text": "F#4",
      "fg": "#28b0f3",
      "bg": "#00000000",
      "pos": [
        40,
        2
      ]
    },
    {
      "plugin": "SubmarineFree",
      "version": "0.6.8",
      "model": "TD-202",
      "params": [],
      "text": "B3",
      "fg": "#28b0f3",
      "bg": "#00000000",
      "pos": [
        48,
        2
      ]
    },
    {
      "plugin": "Bogaudio",
      "version": "0.6.12",
      "model": "Bogaudio-Mix8",
      "params": [
        {
          "paramId": 0,
          "value": 0.901590407
        },
        {
          "paramId": 1,
          "value": 0.0
        },
        {
          "paramId": 2,
          "value": 0.0
        },
        {
          "paramId": 3,
          "value": 0.909090936
        },
        {
          "paramId": 4,
          "value": 0.0
        },
        {
          "paramId": 5,
          "value": 0.0
        },
        {
          "paramId": 6,
          "value": 0.909090936
        },
        {
          "paramId": 7,
          "value": 0.0
        },
        {
          "paramId": 8,
          "value": 0.0
        },
        {
          "paramId": 9,
          "value": 0.909090936
        },
        {
          "paramId": 10,
          "value": 0.0
        },
        {
          "paramId": 11,
          "value": 0.0
        },
        {
          "paramId": 12,
          "value": 0.909090936
        },
        {
          "paramId": 13,
          "value": 0.0
        },
        {
          "paramId": 14,
          "value": 0.0
        },
        {
          "paramId": 15,
          "value": 0.909090936
        },
        {
          "paramId": 16,
          "value": 0.0
        },
        {
          "paramId": 17,
          "value": 0.0
        },
        {
          "paramId": 18,
          "value": 0.909090936
        },
        {
          "paramId": 19,
          "value": 0.0
        },
        {
          "paramId": 20,
          "value": 0.0
        },
        {
          "paramId": 21,
          "value": 0.909090936
        },
        {
          "paramId": 22,
          "value": 0.0
        },
        {
          "paramId": 23,
          "value": 0.0
        },
        {
          "paramId": 24,
          "value": 0.820590556
        },
        {
          "paramId": 25,
          "value": 0.0
        }
      ],
      "pos": [
        0,
        0
      ]
    },
    {
      "plugin": "ImpromptuModular",
      "version": "0.6.12",
      "model": "Tact1",
      "params": [
        {
          "paramId": 0,
          "value": -0.290715337
        },
        {
          "paramId": 2,
          "value": 2.03799915
        },
        {
          "paramId": 1,
          "value": 1.0
        },
        {
          "paramId": 3,
          "value": 0.0
        }
      ],
      "data": {
        "cv": 6.33695507,
        "rateMultiplier": 1.0,
        "panelTheme": 1
      },
      "pos": [
        42,
        2
      ]
    },
    {
      "plugin": "squinkylabs-plug1",
      "version": "0.6.13",
      "model": "squinkylabs-funv",
      "params": [
        {
          "paramId": 0,
          "value": 1.0
        },
        {
          "paramId": 2,
          "value": -0.6480003
        },
        {
          "paramId": 1,
          "value": 1.0
        },
        {
          "paramId": 3,
          "value": -0.158999786
        },
        {
          "paramId": 5,
          "value": 0.518000841
        },
        {
          "paramId": 4,
          "value": 0.0
        },
        {
          "paramId": 6,
          "value": 0.0
        }
      ],
      "pos": [
        56,
        2
      ]
    }
  ],
  "wires": [
    {
      "color": "#c9b70e",
      "outputModuleId": 1,
      "outputId": 0,
      "inputModuleId": 0,
      "inputId": 0
    },
    {
      "color": "#c91847",
      "outputModuleId": 1,
      "outputId": 1,
      "inputModuleId": 0,
      "inputId": 1
    },
    {
      "color": "#0986ad",
      "outputModuleId": 8,
      "outputId": 0,
      "inputModuleId": 6,
      "inputId": 0
    },
    {
      "color": "#c9b70e",
      "outputModuleId": 3,
      "outputId": 0,
      "inputModuleId": 2,
      "inputId": 0
    },
    {
      "color": "#c91847",
      "outputModuleId": 2,
      "outputId": 0,
      "inputModuleId": 7,
      "inputId": 1
    },
    {
      "color": "#c9b70e",
      "outputModuleId": 3,
      "outputId": 1,
      "inputModuleId": 2,
      "inputId": 1
    },
    {
      "color": "#c91847",
      "outputModuleId": 2,
      "outputId": 1,
      "inputModuleId": 8,
      "inputId": 1
    },
    {
      "color": "#c9b70e",
      "outputModuleId": 4,
      "outputId": 0,
      "inputModuleId": 10,
      "inputId": 5
    },
    {
      "color": "#0c8e15",
      "outputModuleId": 9,
      "outputId": 0,
      "inputModuleId": 7,
      "inputId": 0
    },
    {
      "color": "#0986ad",
      "outputModuleId": 5,
      "outputId": 0,
      "inputModuleId": 10,
      "inputId": 3
    },
    {
      "color": "#c9b70e",
      "outputModuleId": 10,
      "outputId": 0,
      "inputModuleId": 15,
      "inputId": 5
    },
    {
      "color": "#0c8e15",
      "outputModuleId": 16,
      "outputId": 0,
      "inputModuleId": 15,
      "inputId": 0
    },
    {
      "color": "#0986ad",
      "outputModuleId": 16,
      "outputId": 1,
      "inputModuleId": 15,
      "inputId": 3
    },
    {
      "color": "#0986ad",
      "outputModuleId": 19,
      "outputId": 0,
      "inputModuleId": 18,
      "inputId": 3
    },
    {
      "color": "#0986ad",
      "outputModuleId": 22,
      "outputId": 0,
      "inputModuleId": 21,
      "inputId": 4
    },
    {
      "color": "#0c8e15",
      "outputModuleId": 21,
      "outputId": 0,
      "inputModuleId": 23,
      "inputId": 0
    },
    {
      "color": "#c9b70e",
      "outputModuleId": 22,
      "outputId": 1,
      "inputModuleId": 23,
      "inputId": 1
    },
    {
      "color": "#0986ad",
      "outputModuleId": 6,
      "outputId": 1,
      "inputModuleId": 32,
      "inputId": 5
    },
    {
      "color": "#c91847",
      "outputModuleId": 32,
      "outputId": 0,
      "inputModuleId": 1,
      "inputId": 0
    },
    {
      "color": "#0c8e15",
      "outputModuleId": 32,
      "outputId": 1,
      "inputModuleId": 1,
      "inputId": 1
    },
    {
      "color": "#0986ad",
      "outputModuleId": 15,
      "outputId": 0,
      "inputModuleId": 32,
      "inputId": 11
    },
    {
      "color": "#c91847",
      "outputModuleId": 13,
      "outputId": 0,
      "inputModuleId": 32,
      "inputId": 9
    },
    {
      "color": "#0986ad",
      "outputModuleId": 7,
      "outputId": 0,
      "inputModuleId": 32,
      "inputId": 2
    },
    {
      "color": "#0986ad",
      "outputModuleId": 10,
      "outputId": 1,
      "inputModuleId": 32,
      "inputId": 8
    },
    {
      "color": "#c91847",
      "outputModuleId": 12,
      "outputId": 0,
      "inputModuleId": 32,
      "inputId": 6
    },
    {
      "color": "#0986ad",
      "outputModuleId": 18,
      "outputId": 0,
      "inputModuleId": 32,
      "inputId": 14
    },
    {
      "color": "#c9b70e",
      "outputModuleId": 20,
      "outputId": 0,
      "inputModuleId": 32,
      "inputId": 12
    },
    {
      "color": "#0c8e15",
      "outputModuleId": 23,
      "outputId": 0,
      "inputModuleId": 32,
      "inputId": 17
    },
    {
      "color": "#0986ad",
      "outputModuleId": 33,
      "outputId": 0,
      "inputModuleId": 32,
      "inputId": 15
    },
    {
      "color": "#c9b70e",
      "outputModuleId": 11,
      "outputId": 0,
      "inputModuleId": 32,
      "inputId": 0
    },
    {
      "color": "#c91847",
      "outputModuleId": 17,
      "outputId": 0,
      "inputModuleId": 32,
      "inputId": 3
    },
    {
      "color": "#0986ad",
      "outputModuleId": 24,
      "outputId": 0,
      "inputModuleId": 32,
      "inputId": 18
    },
    {
      "color": "#c91847",
      "outputModuleId": 34,
      "outputId": 1,
      "inputModuleId": 32,
      "inputId": 20
    }
  ]
}